<svg width="512" height="512" viewBox="0 0 512 512" fill="none" xmlns="http://www.w3.org/2000/svg">
<g clip-path="url(#clip0)">
<g clip-path="url(#clip1)" filter="url(#filter0_d)">
<path d="M274.403 483.267C272.743 484.203 271.951 485.387 272.046 486.655C272.138 487.877 273.045 488.953 274.251 489.727C276.674 491.284 280.735 491.909 284.049 490.042L284.049 490.042L292.087 457.432L292.493 457.139C292.493 457.139 292.493 457.139 292.493 457.139C291.513 455.782 290.018 455.082 288.436 454.856C286.857 454.63 285.157 454.868 283.693 455.423C282.237 455.974 280.949 456.862 280.263 457.994C279.915 458.567 279.72 459.207 279.748 459.889C279.775 460.572 280.025 461.261 280.511 461.934C283.305 465.805 284.264 469.707 283.326 473.32C282.385 476.942 279.511 480.385 274.403 483.267ZM274.403 483.267L274.648 483.703M274.403 483.267C274.403 483.267 274.403 483.267 274.403 483.267L274.648 483.703M274.648 483.703C268.356 487.251 277.549 493.13 283.804 489.606L274.648 483.703ZM108.345 463.299C114.612 460.604 117.639 456.859 117.779 452.218C117.826 450.639 118.821 449.496 120.152 448.77C121.477 448.048 123.192 447.7 124.87 447.7C126.546 447.699 128.244 448.045 129.533 448.771C130.832 449.503 131.766 450.66 131.719 452.248C131.719 452.248 131.719 452.248 131.719 452.248L131.219 452.233L108.345 463.299ZM108.345 463.299C106.531 464.076 105.488 465.182 105.181 466.433C104.875 467.684 105.34 468.935 106.231 469.923C108.007 471.894 111.599 472.991 115.273 471.414L108.345 463.299ZM66.2036 393.39L66.2114 393.347V393.302V270.208H461.498V394.854L459.881 419.349L459.879 419.371L459.88 419.393L459.918 421.08C460.449 444.485 460.558 449.295 457.458 473.556C457.382 474.147 457.02 474.683 456.332 475.163C455.639 475.646 454.652 476.044 453.424 476.345C450.972 476.946 447.686 477.134 444.225 476.959C440.77 476.785 437.172 476.252 434.107 475.431C431.019 474.603 428.553 473.504 427.282 472.249L427.281 472.249C424.257 469.268 424.05 465.696 423.835 461.973C423.82 461.714 423.805 461.454 423.789 461.194C423.667 459.218 423.483 457.206 422.755 455.326C422.02 453.427 420.741 451.684 418.47 450.216C417.745 449.747 417.056 449.298 416.396 448.867C412.944 446.616 410.278 444.878 407.338 443.472C403.82 441.791 399.919 440.588 393.796 439.505C391.568 439.109 388.722 438.075 386.254 436.735C385.022 436.066 383.898 435.328 382.998 434.565C382.092 433.797 381.444 433.031 381.124 432.313C380.916 431.847 380.753 431.167 380.603 430.303C380.494 429.68 380.396 428.988 380.291 428.241C380.251 427.959 380.21 427.669 380.167 427.372C379.856 425.227 379.442 422.758 378.56 420.559C377.675 418.353 376.3 416.368 374.038 415.256C371.777 414.144 368.723 413.951 364.578 415.128C350.267 419.188 335.996 420.205 323.299 413.441C315.271 409.163 309.376 407.699 305.101 408.195C300.769 408.698 298.169 411.203 296.758 414.623C295.363 418.009 295.126 422.296 295.445 426.468C295.765 430.651 296.648 434.773 297.538 437.863C298.248 440.326 299.274 443.198 300.386 446.306C300.974 447.949 301.585 449.659 302.186 451.41C303.931 456.495 305.602 461.968 306.417 467.328C307.233 472.69 307.187 477.901 305.531 482.479C303.881 487.041 300.62 491.015 294.923 493.899C273.25 504.872 254.954 490.485 252.184 477.496L252.184 477.495C250.002 467.272 251.692 456.752 253.36 446.373C253.579 445.012 253.797 443.654 254.006 442.3C254.185 441.145 254.379 439.982 254.575 438.813C255.296 434.502 256.03 430.109 256.03 425.754C256.03 422.542 253.626 419.263 250.41 417.708C247.144 416.13 242.988 416.3 239.502 420.04C233.758 426.197 223.474 433.662 212.397 437.206C201.33 440.746 189.577 440.348 180.706 430.976C179.565 429.77 178.451 428.368 177.283 426.9C172.412 420.773 166.61 413.474 153.999 414.271C149.634 414.547 146.503 415.757 144.288 417.575C142.073 419.394 140.821 421.783 140.148 424.332C139.037 428.534 139.485 433.27 139.814 436.746C139.881 437.451 139.942 438.104 139.985 438.69C140.005 438.962 140.025 439.236 140.046 439.51C140.767 449.256 141.579 460.238 132.293 468.312L132.293 468.312C122.626 476.725 111.688 479.368 103.438 477.373C99.3166 476.376 95.8696 474.226 93.5575 471.063C91.2477 467.904 90.0436 463.698 90.4704 458.538C90.4757 458.492 90.488 458.44 90.5108 458.361C90.5144 458.349 90.5184 458.335 90.5229 458.32C90.5436 458.25 90.5718 458.155 90.5916 458.059L90.6357 457.846L90.5098 457.668C90.0878 457.073 89.7739 456.467 89.6561 455.797L89.6558 455.795C88.6212 450.022 85.9906 444.769 82.8291 439.677C81.249 437.132 79.5306 434.619 77.8079 432.099L77.805 432.095C76.0792 429.57 74.3489 427.039 72.7347 424.447L72.3108 424.711L72.7347 424.447C66.3553 414.204 64.246 404.343 66.2036 393.39ZM440.473 433.432L440.473 433.432C440.327 436.285 440.335 439.142 440.348 441.982L440.35 442.322C440.363 445.052 440.376 447.766 440.26 450.47C440.018 456.098 439.217 461.646 436.709 467.077L437.136 467.274L436.709 467.077C436.371 467.809 436.284 468.52 436.427 469.184C436.569 469.845 436.93 470.418 437.42 470.898C438.39 471.847 439.91 472.474 441.525 472.76C443.149 473.048 444.938 473.002 446.49 472.54C448.041 472.078 449.414 471.181 450.088 469.721L449.635 469.511L450.089 469.721C452.843 463.753 453.76 457.695 454.073 451.634C454.228 448.621 454.235 445.6 454.241 442.591L454.241 442.543C454.247 439.514 454.254 436.496 454.412 433.484C454.494 431.894 453.583 430.732 452.295 429.999C451.02 429.272 449.327 428.927 447.651 428.928C445.974 428.929 444.253 429.277 442.914 429.997C441.572 430.72 440.555 431.858 440.473 433.432ZM212.882 417.591L212.882 417.591C208.534 420.837 204.059 423.76 198.155 425.736C196.229 426.38 195.074 427.376 194.693 428.576C194.309 429.785 194.766 431.019 195.659 432.002C197.439 433.96 201.136 435.175 205.005 433.88C211.964 431.559 217.572 428.064 222.629 424.293L222.629 424.292C223.854 423.378 224.629 422.202 224.677 420.952C224.726 419.679 224.016 418.486 222.601 417.572L222.601 417.572C221.323 416.748 219.515 416.303 217.745 416.276C215.98 416.25 214.158 416.64 212.882 417.591Z" fill="#FFDA44" stroke="#B3920A"/>
</g>
<path d="M101.661 99.6978V146.119L137.16 99.6978H101.661Z" fill="#78B9EB"/>
<g filter="url(#filter1_d)">
<path d="M101.661 371.634H252.314L101.661 305.979V371.634Z" fill="#78B9EB"/>
</g>
<path d="M461.786 99.6978H348.863L461.786 148.905V99.6978Z" fill="#78B9EB"/>
<g filter="url(#filter2_d)">
<path d="M461.786 371.634V219.025L345.173 371.634H461.786Z" fill="#5AAAE7"/>
</g>
<g filter="url(#filter3_d)">
<path d="M168.969 335.31L252.314 371.634L321.937 402L345.173 371.634L422.686 270.175C357.271 321.867 262.554 346.182 168.969 335.31Z" fill="#FFCD00"/>
</g>
<path d="M259.713 60.8489H259.705L316.021 85.4077V85.399L259.713 60.8489Z" fill="#FFDA44"/>
<g filter="url(#filter4_d)">
<path d="M290.297 22C266.631 22.0203 247.454 36.5045 247.427 54.375V55.4941L256 59.2311L259.713 60.8489H264.573V54.375C264.573 43.6452 276.091 34.9506 290.297 34.9506C304.503 34.9506 316.021 43.6452 316.021 54.375V119.122C316.021 129.849 304.503 138.544 290.297 138.544C276.091 138.544 264.573 129.849 264.573 119.122V80.2733H247.427V119.119C247.427 136.998 266.62 151.494 290.297 151.494C313.978 151.494 333.171 136.998 333.171 119.119V54.375C333.141 36.5045 313.963 22.0203 290.297 22V22Z" fill="#A7A9AC"/>
</g>
<g filter="url(#filter5_d)">
<path d="M496.598 164.12L461.786 148.905L348.863 99.6978L333.171 92.8731V119.122C333.171 137.001 313.975 151.494 290.297 151.494C266.62 151.494 247.427 137.001 247.427 119.122V80.2733H264.573V119.119C264.573 129.849 276.091 138.544 290.297 138.544C304.503 138.544 316.021 129.846 316.021 119.119V85.4077L259.701 60.8489L256 59.2282L247.423 55.4941L190.063 30.4801L137.16 99.6978L101.661 146.119L10 266.032L101.661 305.979L168.969 335.31C262.554 346.182 357.271 321.867 422.686 270.175L461.786 219.025L491.112 180.631L502 166.451L496.598 164.12Z" fill="#FFDA44"/>
</g>
<path d="M256 59.2282L259.705 60.8489H259.713L256 59.2282Z" fill="#A7A9AC"/>
<path d="M307.448 125.596H298.874C284.665 125.596 273.15 116.899 273.15 106.172V93.221H290.297V106.172C290.297 109.749 294.136 112.645 298.874 112.645H307.448V125.596Z" fill="#A7A9AC"/>
<path d="M193.453 170.29L202.026 159.076L335.686 217.349L327.109 228.563L193.453 170.29Z" fill="#57A4FF"/>
<path d="M167.725 205.665L176.302 194.451L309.959 252.725L301.385 263.939L167.725 205.665Z" fill="#57A4FF"/>
<path d="M142.001 241.044L150.575 229.83L284.235 288.103L275.661 299.317L142.001 241.044Z" fill="#57A4FF"/>
</g>
<defs>
<filter id="filter0_d" x="61" y="256" width="405" height="264" filterUnits="userSpaceOnUse" color-interpolation-filters="sRGB">
<feFlood flood-opacity="0" result="BackgroundImageFix"/>
<feColorMatrix in="SourceAlpha" type="matrix" values="0 0 0 0 0 0 0 0 0 0 0 0 0 0 0 0 0 0 127 0"/>
<feOffset dy="4"/>
<feGaussianBlur stdDeviation="2"/>
<feColorMatrix type="matrix" values="0 0 0 0 0 0 0 0 0 0 0 0 0 0 0 0 0 0 0.25 0"/>
<feBlend mode="normal" in2="BackgroundImageFix" result="effect1_dropShadow"/>
<feBlend mode="normal" in="SourceGraphic" in2="effect1_dropShadow" result="shape"/>
</filter>
<filter id="filter1_d" x="97.6611" y="305.979" width="158.653" height="73.6546" filterUnits="userSpaceOnUse" color-interpolation-filters="sRGB">
<feFlood flood-opacity="0" result="BackgroundImageFix"/>
<feColorMatrix in="SourceAlpha" type="matrix" values="0 0 0 0 0 0 0 0 0 0 0 0 0 0 0 0 0 0 127 0"/>
<feOffset dy="4"/>
<feGaussianBlur stdDeviation="2"/>
<feColorMatrix type="matrix" values="0 0 0 0 0 0 0 0 0 0 0 0 0 0 0 0 0 0 0.25 0"/>
<feBlend mode="normal" in2="BackgroundImageFix" result="effect1_dropShadow"/>
<feBlend mode="normal" in="SourceGraphic" in2="effect1_dropShadow" result="shape"/>
</filter>
<filter id="filter2_d" x="339.173" y="218.025" width="128.613" height="164.609" filterUnits="userSpaceOnUse" color-interpolation-filters="sRGB">
<feFlood flood-opacity="0" result="BackgroundImageFix"/>
<feColorMatrix in="SourceAlpha" type="matrix" values="0 0 0 0 0 0 0 0 0 0 0 0 0 0 0 0 0 0 127 0"/>
<feOffset dy="5"/>
<feGaussianBlur stdDeviation="3"/>
<feColorMatrix type="matrix" values="0 0 0 0 0 0 0 0 0 0 0 0 0 0 0 0 0 0 0.25 0"/>
<feBlend mode="normal" in2="BackgroundImageFix" result="effect1_dropShadow"/>
<feBlend mode="normal" in="SourceGraphic" in2="effect1_dropShadow" result="shape"/>
</filter>
<filter id="filter3_d" x="162.969" y="270.175" width="267.717" height="145.825" filterUnits="userSpaceOnUse" color-interpolation-filters="sRGB">
<feFlood flood-opacity="0" result="BackgroundImageFix"/>
<feColorMatrix in="SourceAlpha" type="matrix" values="0 0 0 0 0 0 0 0 0 0 0 0 0 0 0 0 0 0 127 0"/>
<feOffset dx="1" dy="7"/>
<feGaussianBlur stdDeviation="3.5"/>
<feColorMatrix type="matrix" values="0 0 0 0 0 0 0 0 0 0 0 0 0 0 0 0 0 0 0.25 0"/>
<feBlend mode="normal" in2="BackgroundImageFix" result="effect1_dropShadow"/>
<feBlend mode="normal" in="SourceGraphic" in2="effect1_dropShadow" result="shape"/>
</filter>
<filter id="filter4_d" x="235.427" y="18" width="101.745" height="145.494" filterUnits="userSpaceOnUse" color-interpolation-filters="sRGB">
<feFlood flood-opacity="0" result="BackgroundImageFix"/>
<feColorMatrix in="SourceAlpha" type="matrix" values="0 0 0 0 0 0 0 0 0 0 0 0 0 0 0 0 0 0 127 0"/>
<feOffset dx="-4" dy="4"/>
<feGaussianBlur stdDeviation="4"/>
<feColorMatrix type="matrix" values="0 0 0 0 0 0 0 0 0 0 0 0 0 0 0 0 0 0 0.55 0"/>
<feBlend mode="normal" in2="BackgroundImageFix" result="effect1_dropShadow"/>
<feBlend mode="normal" in="SourceGraphic" in2="effect1_dropShadow" result="shape"/>
</filter>
<filter id="filter5_d" x="-4" y="30.4801" width="510" height="326.379" filterUnits="userSpaceOnUse" color-interpolation-filters="sRGB">
<feFlood flood-opacity="0" result="BackgroundImageFix"/>
<feColorMatrix in="SourceAlpha" type="matrix" values="0 0 0 0 0 0 0 0 0 0 0 0 0 0 0 0 0 0 127 0"/>
<feOffset dx="-5" dy="10"/>
<feGaussianBlur stdDeviation="4.5"/>
<feColorMatrix type="matrix" values="0 0 0 0 0 0 0 0 0 0 0 0 0 0 0 0 0 0 0.25 0"/>
<feBlend mode="normal" in2="BackgroundImageFix" result="effect1_dropShadow"/>
<feBlend mode="normal" in="SourceGraphic" in2="effect1_dropShadow" result="shape"/>
</filter>
<clipPath id="clip0">
<rect width="512" height="512" fill="white"/>
</clipPath>
<clipPath id="clip1">
<rect width="397" height="256" fill="white" transform="translate(65 256)"/>
</clipPath>
</defs>
</svg>
